# xmcd CD Database Entry
#
# Track frame offsets:
# 150
# 14209
# 34012
# 53154
# 72144
# 90655
# 109927
#
# Disc length: 1719 seconds
#
# Revision: 1
# Processed by: cddbd v1.4PL0 Copyright (c) Steve Scherf et al.
# Submitted via: tcd 2.0b
#
DISCID=5a06b507
DTITLE=mercyme - almost there
DYEAR=1900
DGENRE=
TTITLE0=On My Way To You
TTITLE1=Worship You
TTITLE2=Here I Am
TTITLE3=I Can Only Imagine
TTITLE4=How Great Is Your Love
TTITLE5=Bless Me (Jabez's Song)
TTITLE6=In You
EXTD=
EXTT0=
EXTT1=
EXTT2=
EXTT3=
EXTT4=
EXTT5=
EXTT6=
PLAYORDER=
